<svg height="512" viewBox="0 0 512 512" width="512" xmlns="http://www.w3.org/2000/svg"><path d="m212.223 321.889h16v15.998h-16z" transform="matrix(.895 -.447 .447 .895 -124.195 133.163)"/><path d="m126.358 364.819h15.998v16.002h-15.998z" transform="matrix(.894 -.447 .447 .894 -152.546 99.446)"/><path d="m154.98 350.511h16.002v16.002h-16.002z" transform="matrix(.894 -.447 .447 .894 -143.125 110.736)"/><path d="m183.601 336.198h16.002v16.002h-16.002z" transform="matrix(.894 -.447 .447 .894 -133.703 122.025)"/><path d="m270.356 315.181h16.002v15.998h-16.002z" transform="matrix(.447 -.894 .894 .447 -135.2 427.575)"/><path d="m298.98 329.487h16.002v16.002h-16.002z" transform="matrix(.447 -.894 .894 .447 -132.164 461.131)"/><path d="m356.223 358.111h15.998v16h-15.998z" transform="matrix(.447 -.895 .895 .447 -126.087 528.259)"/><path d="m327.601 343.8h16.002v16.002h-16.002z" transform="matrix(.447 -.894 .894 .447 -129.144 494.642)"/><path d="m483.347 395.347-20.6-10.3 8.562 25.661-63.309-31.653v-163.055a8 8 0 0 0 -4.422-7.156l-139.578-69.789v-68.034l19.125 19.136v-23.032l-27.125-27.125-27.125 27.125v23.032l19.125-19.136v68.034l-139.578 69.789a8 8 0 0 0 -4.422 7.156v163.057l-63.309 31.651 8.562-25.662-20.6 10.3-12.131 36.393 36.392 12.131 20.6-10.3-25.67-8.548 64.156-32.076 140.42 70.21a7.693 7.693 0 0 0 7.125-.061l.031.061 140.424-70.211 64.154 32.076-25.669 8.548 20.6 10.3 36.392-12.13zm-227.347-116.292-126.111-63.055 126.111-63.055 126.111 63.055zm-136-50.11 128 64v14.11l-9.891 4.945 7.157 14.312 2.734-1.367v118.11l-128-64zm144 214.11v-150.11l128-64v142.11l-2.734-1.368-7.157 14.313z"/><path d="m248 251.555h16v14.223h-16z"/><path d="m248 223.109h16v14.223h-16z"/><path d="m248 166.223h16v14.223h-16z"/><path d="m248 194.668h16v14.219h-16z"/></svg>