<?xml version="1.0" standalone="no"?>
<svg
  width="600"
  height="600"
  viewBox="0 0 600 600"
  xmlns="http://www.w3.org/2000/svg"
>
  <g transform="translate(300,300)">
    <path d="M132.2,-201.5C173.9,-178.8,212,-146.5,231.9,-105.2C251.9,-63.9,253.6,-13.6,240.8,30.4C227.9,74.5,200.5,112.2,163.8,126.1C127.1,140,81.2,129.9,44,133.4C6.8,136.9,-21.7,153.8,-47.2,150.9C-72.7,147.9,-95.3,125,-128.5,102.5C-161.7,80.1,-205.6,58,-202.9,33.2C-200.2,8.4,-151.1,-19.1,-122.3,-45C-93.5,-70.8,-85.1,-95.1,-68.2,-129.1C-51.2,-163,-25.6,-206.5,9.8,-221.8C45.2,-237.1,90.5,-224.1,132.2,-201.5Z" fill="#9900ef" />
  </g>
</svg>
    